<?xml version="1.0" standalone="yes"?>
<svg width="217" height="175">
<path style="fill:#ffffff; stroke:none;" d="M0 0L0 175L217 175L217 0L0 0z"/>
<path style="fill:#ffc3db; stroke:none;" d="M149 5L149 6L153 6L149 5z"/>
<path style="fill:#d191a9; stroke:none;" d="M153 5L153 6L157 7L157 6L153 5z"/>
<path style="fill:#977381; stroke:none;" d="M156 5L156 6L160 6L156 5z"/>
<path style="fill:#bdbdbd; stroke:none;" d="M160.667 5.33333L161.333 5.66667L160.667 5.33333z"/>
<path style="fill:#d10f53; stroke:none;" d="M173 170L173 169C163 163.539 157.288 151.077 153.139 141C151.749 137.625 148.335 131.869 152.322 128.992L167 127.61C181.431 124.583 198.13 117.281 203 102L202 100L201.171 88L200 57L203 57C202.776 31.9321 172.046 10.7499 154.093 33.5756C136.305 56.1924 140 86.2425 140 113C117.379 102.486 106.601 77.6671 113.942 54.0046L120.218 44.8711C127.608 28.2958 136.309 13.2881 155 7C148.594 4.38843 140.232 9.47881 135 13.0293C118.662 24.1167 112.579 38.5456 108.004 57C103.399 75.5717 108.438 101.239 122.039 114.907L143.012 129.275C152.19 142.773 152.001 167.367 173 170z"/>
<path style="fill:#f793b7; stroke:none;" d="M143 12L143 13L146 13L143 12z"/>
<path style="fill:#d99791; stroke:none;" d="M17 13L17 58L28 58L28 13L17 13z"/>
<path style="fill:#dfa5bb; stroke:none;" d="M139.333 15.6667L139.667 16.3333L139.333 15.6667z"/>
<path style="fill:#ffbbdd; stroke:none;" d="M132 21L130 26L131 26L134 21L132 21z"/>
<path style="fill:#bd6585; stroke:none;" d="M166 22L166 23L170 23L166 22z"/>
<path style="fill:#e35787; stroke:none;" d="M170 23L170 24L175 25L175 24L170 23z"/>
<path style="fill:#dda3b9; stroke:none;" d="M128.667 26.3333L129.333 26.6667L128.667 26.3333z"/>
<path style="fill:#d793ad; stroke:none;" d="M186 28L186 29L190 29L186 28z"/>
<path style="fill:#ed89ad; stroke:none;" d="M153.667 33.3333L154.333 33.6667L153.667 33.3333z"/>
<path style="fill:#d15d87; stroke:none;" d="M169 35L169 36L173 36L169 35z"/>
<path style="fill:#ffabcd; stroke:none;" d="M173 35L173 36L178 36L173 35z"/>
<path style="fill:#d37597; stroke:none;" d="M122 36L122 39L123 39L122 36z"/>
<path style="fill:#ffffff; stroke:none;" d="M167.209 37.0231C147.052 48.3352 144 73.6129 144 94L146.013 115.297C151.246 121.9 170.848 117.93 177 114.673C198.18 103.458 200.522 77.755 194.558 57C191.446 46.17 181.359 29.0823 167.209 37.0231z"/>
<path style="fill:#b3114b; stroke:none;" d="M113 37C105.806 55.5419 102.701 75.6349 109 95L110 95L107.184 62L113 37z"/>
<path style="fill:#ffb1d7; stroke:none;" d="M185 39L188 43L185 39z"/>
<path style="fill:#c57995; stroke:none;" d="M163.333 40.6667L163.667 41.3333L163.333 40.6667z"/>
<path style="fill:#cda7b5; stroke:none;" d="M120 41L122 44L120 41z"/>
<path style="fill:#e189a9; stroke:none;" d="M157 45L157 48L158 48L157 45z"/>
<path style="fill:#ff9fc1; stroke:none;" d="M201.333 46.6667L201.667 47.3333L201.333 46.6667z"/>
<path style="fill:#af2d5b; stroke:none;" d="M153 49L150 56L151 56L155 49L153 49z"/>
<path style="fill:#d1d1d3; stroke:none;" d="M141 53L140 56L141 53z"/>
<path style="fill:#d99db7; stroke:none;" d="M203 54L203 61L204 61L203 54z"/>
<path style="fill:#e7a7bf; stroke:none;" d="M113 55L113 60L114 60L113 55z"/>
<path style="fill:#f98fb7; stroke:none;" d="M194 55L194 58L195 58L194 55z"/>
<path style="fill:#d3658f; stroke:none;" d="M106.333 56.6667L106.667 57.3333L106.333 56.6667z"/>
<path style="fill:#fba5c7; stroke:none;" d="M200 57L200 61L201 61L200 57z"/>
<path style="fill:#ad4141; stroke:none;" d="M17 58L17 157L28 157L28 110L27 110L27 156L18 156L18 85L17 58z"/>
<path style="fill:#d32b27; stroke:none;" d="M18 58L18 156L27 156L27 123L28.6034 110.603L43 109L83 109L83 98C66.0637 102.032 45.396 99 28 99L28 69L83 68L83 59L18 58z"/>
<path style="fill:#b93735; stroke:none;" d="M22 58L22 59L83 59L83 68L28 69L28 70L84 70L84 58L22 58z"/>
<path style="fill:#c77b99; stroke:none;" d="M195.333 58.6667L195.667 59.3333L195.333 58.6667z"/>
<path style="fill:#ffb1d1; stroke:none;" d="M105 62L105 85L106 85L105 62z"/>
<path style="fill:#ed8fb1; stroke:none;" d="M141.333 62.6667L141.667 63.3333L141.333 62.6667z"/>
<path style="fill:#d15381; stroke:none;" d="M111 63L111 70L112 70L111 63z"/>
<path style="fill:#af4b71; stroke:none;" d="M146 64L146 68L147 68L146 64z"/>
<path style="fill:#ffb5db; stroke:none;" d="M202 66L203 79L204 79L202 66z"/>
<path style="fill:#e96197; stroke:none;" d="M201 67L201 70L202 70L201 67z"/>
<path style="fill:#bd577f; stroke:none;" d="M197 70L197 88L198 88L197 70z"/>
<path style="fill:#c16f8d; stroke:none;" d="M112 76L112 80L113 80L112 76z"/>
<path style="fill:#bb6181; stroke:none;" d="M139 78L139 108L140 108L139 78z"/>
<path style="fill:#df6993; stroke:none;" d="M143 83L143 88L144 88L143 83z"/>
<path style="fill:#ff97bb; stroke:none;" d="M143 88L143 103L144 103L143 88z"/>
<path style="fill:#c9bbc1; stroke:none;" d="M104 91L106 94L104 91z"/>
<path style="fill:#bd3535; stroke:none;" d="M28 98L28 99L82 99L64 98L28 98M83 98L83 109L28 109L28 110L84 110L83 98z"/>
<path style="fill:#7f1b41; stroke:none;" d="M202 98L201 102L202 98z"/>
<path style="fill:#9b999d; stroke:none;" d="M108.333 102.667L108.667 103.333L108.333 102.667z"/>
<path style="fill:#fb9fc3; stroke:none;" d="M131.667 107.333L132.333 107.667L131.667 107.333z"/>
<path style="fill:#b16181; stroke:none;" d="M144 110L144 115L145 115L144 110z"/>
<path style="fill:#e36391; stroke:none;" d="M137 112L137 113L140 113L137 112z"/>
<path style="fill:#972d53; stroke:none;" d="M193 113L192 117L196 113L193 113z"/>
<path style="fill:#d5819f; stroke:none;" d="M148.667 117.333L149.333 117.667L148.667 117.333z"/>
<path style="fill:#dd7fa1; stroke:none;" d="M156 118L156 119L162 119L156 118z"/>
<path style="fill:#ffabcf; stroke:none;" d="M162 118L162 119L166 119L162 118z"/>
<path style="fill:#eb99b7; stroke:none;" d="M184 121L184 122L187 122L184 121z"/>
<path style="fill:#ffbbd5; stroke:none;" d="M179 124L179 125L183 125L179 124z"/>
<path style="fill:#d7799b; stroke:none;" d="M172.667 125.333L173.333 125.667L172.667 125.333z"/>
<path style="fill:#eb87ab; stroke:none;" d="M170.667 126.333L171.333 126.667L170.667 126.333z"/>
<path style="fill:#d58ba7; stroke:none;" d="M143.333 128.667L143.667 129.333L143.333 128.667z"/>
<path style="fill:#e56193; stroke:none;" d="M151 130L155 129L151 130z"/>
<path style="fill:#e787af; stroke:none;" d="M150 131L150 135L151 135L150 131z"/>
<path style="fill:#ffb9dd; stroke:none;" d="M151 134L151 138L152 138L151 134z"/>
<path style="fill:#dd779d; stroke:none;" d="M155.333 146.667L155.667 147.333L155.333 146.667z"/>
<path style="fill:#f7a9c5; stroke:none;" d="M154 155L156 158L154 155z"/>
<path style="fill:#999195; stroke:none;" d="M173 169L176 171L176 170L173 169z"/>
</svg>
